<?xml version="1.0" encoding="utf-8"?>
<!-- Generator: Adobe Illustrator 23.0.1, SVG Export Plug-In . SVG Version: 6.00 Build 0)  -->
<svg version="1.1" id="Lag_1" xmlns="http://www.w3.org/2000/svg" xmlns:xlink="http://www.w3.org/1999/xlink" x="0px" y="0px"
	 viewBox="0 0 2010.347 2004.006" enable-background="new 0 0 2010.347 2004.006" xml:space="preserve">
<g>
	<path fill="#84B062" d="M2002.471,1552.029l-977.475,447.653c-12.586,5.764-27.059,5.764-39.645,0L7.875,1552.029
		C3.077,1549.832,0,1545.038,0,1539.76V13.494C0,6.042,6.042,0,13.494,0h1983.359c7.453,0,13.494,6.042,13.494,13.494V1539.76
		C2010.347,1545.038,2007.27,1549.832,2002.471,1552.029z"/>
	<g>
		<path fill="#FFFFFF" d="M660.457,375.298c4.904,4.47,7.363,9.799,7.363,15.986v205.236c0,4.356-1.684,8.025-5.038,11.002
			c-3.361,2.975-7.497,4.469-12.402,4.469c-4.911,0-9.108-1.494-12.596-4.469c-3.488-2.977-5.232-6.646-5.232-11.002V401.254
			l-89.529,196.298c-2.071,4.357-5.299,7.854-9.689,10.486c-4.396,2.631-9.435,3.953-15.115,3.953
			c-5.686,0-10.725-1.322-15.115-3.953c-4.396-2.633-7.624-6.129-9.688-10.486l-89.529-196.298v195.267
			c0,4.356-1.744,8.025-5.232,11.002c-3.488,2.975-7.69,4.469-12.596,4.469c-4.911,0-9.048-1.494-12.402-4.469
			c-3.361-2.977-5.038-6.646-5.038-11.002V391.285c0-6.188,2.452-11.517,7.363-15.986c4.905-4.469,10.853-6.703,17.828-6.703h12.79
			c5.166,0,9.883,1.375,14.146,4.125s7.425,6.188,9.495,10.314l87.979,194.578l87.979-194.578c2.065-4.126,5.232-7.564,9.496-10.314
			c4.263-2.75,8.975-4.125,14.146-4.125h12.789C649.605,368.595,655.545,370.829,660.457,375.298z"/>
		<path fill="#FFFFFF" d="M760.446,368.595c4.905,0,9.107,1.547,12.596,4.641s5.232,6.822,5.232,11.174v212.111
			c0,4.356-1.744,8.025-5.232,11.002c-3.488,2.975-7.69,4.469-12.596,4.469c-4.911,0-9.048-1.494-12.402-4.469
			c-3.361-2.977-5.038-6.646-5.038-11.002V384.41c0-4.352,1.677-8.08,5.038-11.174C751.398,370.142,755.534,368.595,760.446,368.595
			z"/>
		<path fill="#FFFFFF" d="M1047.631,567.644c2.064-0.914,4.972-1.375,8.72-1.375c3.743,0,6.977,1.32,9.689,3.953
			c2.713,2.637,4.069,5.672,4.069,9.109c0,6.189-2.846,10.545-8.526,13.064c-12.147,5.963-25.132,11.001-38.951,15.127
			c-13.825,4.125-30.363,6.188-49.608,6.188c-19.252,0-37.146-2.81-53.679-8.423c-16.538-5.613-30.879-13.805-43.021-24.58
			c-25.84-22.458-38.757-52.599-38.757-90.414s12.917-67.95,38.757-90.414c25.059-22.002,57.36-33.003,96.893-33.003
			c19.118,0,35.59,2.062,49.415,6.188c13.819,4.126,24.417,7.967,31.781,11.518c7.364,3.555,11.821,6.418,13.371,8.594
			c1.551,2.182,2.325,4.932,2.325,8.251c0,3.325-1.356,6.306-4.069,8.938c-2.713,2.637-5.946,3.953-9.689,3.953
			c-3.748,0-6.655-0.457-8.72-1.375c-10.338-4.812-20.929-8.707-31.781-11.688c-10.852-2.976-24.356-4.47-40.501-4.47
			c-16.15,0-30.751,2.406-43.796,7.22c-13.05,4.813-23.969,11.463-32.749,19.939c-17.313,16.732-25.968,38.847-25.968,66.35
			s8.654,49.622,25.968,66.349c18.857,18.108,44.824,27.159,77.901,27.159c15.242,0,28.293-1.487,39.145-4.47
			C1026.702,576.357,1037.293,572.456,1047.631,567.644z"/>
		<path fill="#FFFFFF" d="M1334.82,596.521c0,4.356-1.684,8.025-5.038,11.002c-3.361,2.975-7.624,4.469-12.79,4.469
			c-5.172,0-9.368-1.435-12.596-4.297c-3.234-2.863-4.845-6.586-4.845-11.174v-10.312c0-18.564-2.325-32.197-6.977-40.91
			c-4.65-8.707-10.985-15.643-18.991-20.799c-8.012-5.156-19.378-7.735-34.105-7.735h-80.228v79.757
			c0,4.356-1.744,8.025-5.232,11.002c-3.488,2.975-7.69,4.469-12.596,4.469c-4.911,0-9.048-1.494-12.402-4.469
			c-3.361-2.977-5.038-6.646-5.038-11.002V386.128c0-4.352,1.677-8.079,5.038-11.174c3.354-3.094,7.491-4.641,12.402-4.641h90.304
			c35.396,0,62.139,6.65,80.228,19.939c16.793,12.607,25.191,29.221,25.191,49.848c0,13.295-4.202,25.671-12.596,37.129
			c-8.399,11.463-21.122,19.826-38.176,25.096c18.604,4.356,32.035,16.275,40.308,35.753c5.426,13.063,8.139,27.276,8.139,42.629
			V596.521z M1229.401,487.199c21.704,0,39.205-3.781,52.516-11.344c13.305-7.563,19.96-18.678,19.96-33.348
			c0-13.75-5.172-24.064-15.503-30.939c-12.402-7.789-32.041-11.688-58.91-11.688h-68.213v87.319H1229.401z"/>
		<path fill="#FFFFFF" d="M1519.688,366.876c40.822,0,73.639,11.576,98.443,34.722c24.029,22.689,36.559,52.255,37.594,88.695
			c-1.035,36.44-13.564,66.005-37.594,88.694c-24.805,23.152-57.621,34.723-98.443,34.723c-41.082,0-73.898-11.57-98.442-34.723
			c-24.551-22.914-37.08-52.479-37.595-88.694c0.515-36.21,13.044-65.774,37.595-88.695
			C1445.789,378.453,1478.606,366.876,1519.688,366.876z M1519.688,584.489c31.521,0,56.325-9.051,74.414-27.158
			c17.567-17.415,26.354-39.761,26.354-67.037c0-27.271-8.787-49.617-26.354-67.037c-18.089-18.103-42.894-27.159-74.414-27.159
			c-31.526,0-56.331,9.057-74.413,27.159c-17.574,17.42-26.355,39.766-26.355,67.037c0,27.276,8.781,49.622,26.355,67.037
			C1463.357,575.438,1488.161,584.489,1519.688,584.489z"/>
	</g>
	<g>
		<path fill="#FFFFFF" d="M331.664,975.628c25.273,0,48.807-5.321,70.588-15.976v-65.72h-66.554c-4.576,0-8.471-1.453-11.698-4.357
			c-3.227-2.904-4.84-6.411-4.84-10.529c0-4.113,1.613-7.625,4.84-10.53c3.228-2.905,7.122-4.356,11.698-4.356h79.461
			c5.376,0,9.945,1.695,13.714,5.082c3.763,3.394,5.647,7.506,5.647,12.346v82.422c0,5.084-1.412,9.623-4.235,13.617
			s-6.523,6.961-11.092,8.896c-30.12,13.56-60.907,20.333-92.369,20.333c-42.221,0-76.374-12.102-102.453-36.31
			c-26.086-24.446-39.126-55.673-39.126-93.679c0-38.487,13.575-70.195,40.739-95.13c26.08-23.72,59.294-35.583,99.63-35.583
			c22.853,0,42.15,2.541,57.882,7.625c15.73,5.083,29.911,11.256,42.554,18.518c5.376,2.666,8.067,6.479,8.067,11.438
			c0,4.964-1.481,8.958-4.437,11.982c-2.963,3.029-6.523,4.538-10.689,4.538c-4.172,0-7.601-0.601-10.285-1.815
			c-26.086-13.554-52.437-20.333-79.059-20.333c-31.197,0-56.741,8.476-76.638,25.417c-20.71,17.916-31.059,42.362-31.059,73.344
			c0,28.566,9.681,52.048,29.041,70.441C270.89,966.189,297.782,975.628,331.664,975.628z"/>
		<path fill="#FFFFFF" d="M721.707,988.701c0,4.601-1.752,8.476-5.244,11.619c-3.498,3.143-7.935,4.72-13.311,4.72
			c-5.382,0-9.75-1.515-13.109-4.538c-3.365-3.024-5.042-6.956-5.042-11.801v-10.893c0-19.607-2.42-34.007-7.26-43.209
			c-4.841-9.196-11.433-16.521-19.765-21.967c-8.339-5.447-20.168-8.17-35.496-8.17h-83.495v84.238
			c0,4.601-1.814,8.476-5.445,11.619c-3.63,3.143-8.004,4.72-13.109,4.72c-5.11,0-9.415-1.577-12.907-4.72
			c-3.498-3.144-5.243-7.019-5.243-11.619V766.487c0-4.596,1.745-8.532,5.243-11.801c3.492-3.268,7.797-4.901,12.907-4.901h93.983
			c36.838,0,64.669,7.023,83.494,21.059c17.478,13.316,26.219,30.863,26.219,52.649c0,14.042-4.374,27.112-13.109,39.214
			c-8.741,12.107-21.982,20.94-39.73,26.506c19.361,4.602,33.34,17.19,41.949,37.762c5.647,13.798,8.471,28.81,8.471,45.023V988.701
			z M611.993,873.236c22.588,0,40.803-3.994,54.655-11.981c13.847-7.988,20.773-19.726,20.773-35.22
			c0-14.524-5.383-25.417-16.135-32.679c-12.907-8.227-33.347-12.345-61.311-12.345h-70.991v92.225H611.993z"/>
		<path fill="#FFFFFF" d="M981.667,976.9c3.359,3.029,5.042,6.717,5.042,11.074s-1.683,7.988-5.042,10.893
			c-3.366,2.905-7.463,4.357-12.303,4.357H807.617c-5.11,0-9.415-1.571-12.907-4.721c-3.498-3.143-5.243-7.018-5.243-11.619V766.487
			c0-4.596,1.745-8.532,5.243-11.801c3.492-3.268,7.797-4.901,12.907-4.901h161.747c4.84,0,8.937,1.515,12.303,4.539
			c3.359,3.029,5.042,6.717,5.042,11.074c0,4.356-1.683,7.988-5.042,10.893c-3.366,2.904-7.463,4.357-12.303,4.357H826.172v80.243
			h128.672c4.84,0,8.937,1.515,12.302,4.538c3.359,3.03,5.042,6.718,5.042,11.075c0,4.356-1.683,7.987-5.042,10.893
			c-3.365,2.905-7.462,4.357-12.302,4.357H826.172v80.606h143.192C974.204,972.361,978.301,973.876,981.667,976.9z"/>
		<path fill="#FFFFFF" d="M1239.004,976.9c3.359,3.029,5.042,6.717,5.042,11.074s-1.683,7.988-5.042,10.893
			c-3.366,2.905-7.463,4.357-12.303,4.357h-161.747c-5.11,0-9.415-1.571-12.907-4.721c-3.498-3.143-5.243-7.018-5.243-11.619
			V766.487c0-4.596,1.745-8.532,5.243-11.801c3.492-3.268,7.797-4.901,12.907-4.901h161.747c4.84,0,8.937,1.515,12.303,4.539
			c3.359,3.029,5.042,6.717,5.042,11.074c0,4.356-1.683,7.988-5.042,10.893c-3.366,2.904-7.463,4.357-12.303,4.357h-143.192v80.243
			h128.672c4.84,0,8.937,1.515,12.302,4.538c3.359,3.03,5.042,6.718,5.042,11.075c0,4.356-1.683,7.987-5.042,10.893
			c-3.365,2.905-7.462,4.357-12.302,4.357h-128.672v80.606h143.192C1231.541,972.361,1235.638,973.876,1239.004,976.9z"/>
		<path fill="#FFFFFF" d="M1531.232,747.968c5.104,0,9.479,1.635,13.108,4.902c3.631,3.268,5.445,7.205,5.445,11.801v216.768
			c0,6.535-2.621,12.106-7.865,16.701c-5.243,4.602-11.496,6.899-18.756,6.899h-4.841c-8.874,0-16.002-3.268-21.378-9.804
			l-156.1-202.969v196.434c0,4.601-1.814,8.476-5.445,11.619c-3.63,3.143-8.004,4.72-13.109,4.72c-5.11,0-9.415-1.577-12.907-4.72
			c-3.498-3.144-5.243-7.019-5.243-11.619V771.933c0-6.535,2.553-12.164,7.663-16.884c5.105-4.72,11.295-7.081,18.555-7.081h5.244
			c8.332,0,15.73,3.632,22.185,10.894l155.293,201.88v-196.07c0-4.596,1.745-8.533,5.243-11.801
			C1521.816,749.603,1526.12,747.968,1531.232,747.968z"/>
		<path fill="#FFFFFF" d="M1713.143,975.628c47.054,0,70.588-13.916,70.588-41.756c0-11.619-9.013-20.934-27.025-27.957
			c-7.803-2.905-16.878-5.504-27.227-7.807c-10.355-2.299-20.843-4.777-31.462-7.443c-10.626-2.661-21.113-5.686-31.462-9.078
			c-10.355-3.387-19.562-7.744-27.63-13.071c-17.748-12.101-26.622-28.077-26.622-47.929c0-21.297,8.874-38.727,26.622-52.285
			c19.361-14.762,45.309-22.148,77.848-22.148c29.307,0,56.067,3.994,80.269,11.982c7.525,2.422,11.294,7.262,11.294,14.523
			c0,3.631-1.412,7.08-4.235,10.348s-5.918,4.902-9.277,4.902c-3.365,0-8.004-0.965-13.916-2.905
			c-17.482-5.565-37.512-8.351-60.1-8.351c-20.71,0-37.783,3.512-51.227,10.529c-13.715,7.262-20.571,17.553-20.571,30.863
			c0,13.797,8.874,24.208,26.621,31.227c8.067,3.393,17.206,6.172,27.429,8.351c10.216,2.179,20.703,4.481,31.462,6.898
			c10.752,2.423,21.239,5.265,31.462,8.532c10.216,3.269,19.361,7.568,27.429,12.891c17.747,11.619,26.621,28.321,26.621,50.107
			c0,20.82-9.277,37.762-27.832,50.832c-19.096,13.316-44.236,19.971-75.428,19.971c-34.153,0-66.15-5.81-95.999-17.428
			c-2.962-1.209-5.584-3.144-7.865-5.811c-2.288-2.66-3.429-5.865-3.429-9.621c0-3.75,1.475-7.138,4.437-10.167
			c2.956-3.024,6.385-4.539,10.286-4.539c3.895,0,8.735,1.151,14.521,3.45c5.779,2.303,15.259,5.025,28.438,8.169
			C1680.332,974.058,1695.659,975.628,1713.143,975.628z"/>
	</g>
	<g>
		<path fill="#FFFFFF" d="M723.313,1214.661v-69.125h28.068c6.626,0,12.436,0.91,17.427,2.727c4.988,1.817,9.141,4.283,12.455,7.399
			c3.313,3.115,5.789,6.767,7.427,10.952c1.638,4.187,2.456,8.65,2.456,13.387c0,5.258-0.936,10.014-2.807,14.264
			c-1.871,4.252-4.523,7.886-7.953,10.904c-3.432,3.018-7.603,5.354-12.515,7.01c-4.911,1.655-10.408,2.482-16.49,2.482H723.313z
			 M782.959,1180.001c0-4.152-0.702-7.966-2.105-11.439c-1.403-3.471-3.45-6.474-6.14-9.006c-2.69-2.531-5.985-4.493-9.883-5.89
			c-3.9-1.396-8.383-2.094-13.45-2.094h-19.999v57.053h19.999c5.146,0,9.688-0.73,13.625-2.19c3.937-1.461,7.231-3.472,9.883-6.036
			c2.649-2.563,4.658-5.582,6.023-9.055C782.276,1187.872,782.959,1184.091,782.959,1180.001z"/>
		<path fill="#FFFFFF" d="M795.589,1214.661l34.735-69.125h6.667l34.735,69.125h-8.771l-10.76-21.613h-37.309l-10.643,21.613
			H795.589z M833.717,1153.52l-17.076,34.173h33.684L833.717,1153.52z"/>
		<path fill="#FFFFFF" d="M891.841,1158.194v56.468h-8.069v-69.125h6.315l54.968,57.539v-57.441h8.07v69.027h-7.018
			L891.841,1158.194z"/>
		<path fill="#FFFFFF" d="M1047.74,1214.661v-56.76l-30.291,43.908h-4.795l-30.408-43.908v56.76h-8.069v-69.125h8.304l32.513,47.316
			l32.514-47.316h8.304v69.125H1047.74z"/>
		<path fill="#FFFFFF" d="M1068.089,1214.661l34.735-69.125h6.667l34.735,69.125h-8.771l-10.76-21.613h-37.309l-10.643,21.613
			H1068.089z M1106.217,1153.52l-17.076,34.173h33.684L1106.217,1153.52z"/>
		<path fill="#FFFFFF" d="M1156.272,1214.661v-69.125h34.969c3.586,0,6.9,0.633,9.941,1.898s5.652,2.921,7.836,4.966
			c2.182,2.044,3.878,4.366,5.087,6.961c1.208,2.597,1.813,5.226,1.813,7.886c0,2.531-0.45,4.95-1.346,7.254
			c-0.896,2.305-2.163,4.381-3.801,6.23c-1.637,1.85-3.587,3.408-5.848,4.674c-2.263,1.266-4.795,2.126-7.602,2.58l20.467,26.676
			h-9.239l-19.648-25.508h-24.561v25.508H1156.272z M1164.341,1183.118h27.25c2.416,0,4.62-0.438,6.608-1.314
			s3.684-2.06,5.087-3.554c1.404-1.492,2.495-3.18,3.275-5.062c0.778-1.882,1.169-3.861,1.169-5.939
			c0-2.076-0.449-4.072-1.345-5.987c-0.897-1.913-2.105-3.585-3.625-5.014c-1.521-1.427-3.315-2.563-5.38-3.407
			c-2.067-0.843-4.23-1.267-6.491-1.267h-26.549V1183.118z"/>
		<path fill="#FFFFFF" d="M1233.46,1214.661v-69.027h8.069v40.112l45.729-40.21h9.005l-33.916,30.376l35.787,38.749h-9.005
			l-31.812-34.757l-15.789,13.532v21.225H1233.46z"/>
	</g>
	<path fill="#FFFFFF" d="M1238.765,1525.311c-88.967-6.127-170.152,16.281-210.398,81.456v-78.146
		c61.346,3.039,200.689-15.96,225.939-152.981c1.828-9.981-5.411-19.32-15.54-20.012c-88.967-6.127-170.152,16.257-210.398,81.432
		v-39.357c0-4.571-1.853-8.697-4.842-11.686c-2.99-2.99-7.14-4.843-11.711-4.843c-9.117,0-16.529,7.412-16.529,16.529v121.925
		c-40.271-65.175-121.431-87.559-210.423-81.432c-10.13,0.692-17.344,10.031-15.515,20.012
		c25.225,137.021,164.568,156.02,225.939,152.981v120.937c0,9.141,7.412,16.553,16.529,16.553c9.141,0,16.553-7.412,16.553-16.553
		v-33.798c61.346,3.039,200.689-15.985,225.939-152.981C1256.133,1535.367,1248.894,1526.028,1238.765,1525.311z M1038.348,1489.314
		c24.212-69.103,83.902-99.961,171.313-100.925c1.705,0,2.94,1.705,2.347,3.311c-24.212,66.979-81.357,100.579-171.313,100.876
		C1039.014,1492.576,1037.804,1490.896,1038.348,1489.314z M982.931,1575.144c-89.931-0.297-147.076-33.897-171.313-100.876
		c-0.568-1.606,0.667-3.311,2.347-3.311c87.435,0.964,147.101,31.822,171.313,100.925
		C985.822,1573.464,984.611,1575.144,982.931,1575.144z M1212.007,1561.382c-24.212,67.003-81.357,100.604-171.313,100.9
		c-1.68,0-2.891-1.68-2.347-3.261c24.212-69.103,83.902-99.962,171.313-100.925
		C1211.365,1558.072,1212.6,1559.801,1212.007,1561.382z"/>
</g>
</svg>
