<svg width="200" height="200" viewBox="0 0 700 700" fill="none" xmlns="http://www.w3.org/2000/svg">
<circle cx="350" cy="350" r="350" fill="#84B062"/>
<path d="M560.701 344.653C471.734 338.526 390.549 360.934 350.303 426.109V347.963C411.649 351.002 550.992 332.003 576.242 194.982C578.07 185.001 570.831 175.662 560.702 174.97C471.735 168.843 390.55 191.227 350.304 256.402V217.045C350.304 212.474 348.451 208.348 345.462 205.359C342.472 202.369 338.322 200.516 333.751 200.516C324.634 200.516 317.222 207.928 317.222 217.045V338.97C276.951 273.795 195.791 251.411 106.799 257.538C96.6691 258.23 89.4551 267.569 91.2841 277.55C116.509 414.571 255.852 433.57 317.223 430.531V551.468C317.223 560.609 324.635 568.021 333.752 568.021C342.893 568.021 350.305 560.609 350.305 551.468V517.67C411.651 520.709 550.994 501.685 576.244 364.689C578.069 354.709 570.83 345.37 560.701 344.653ZM360.284 308.656C384.496 239.553 444.186 208.695 531.597 207.731C533.302 207.731 534.537 209.436 533.944 211.042C509.732 278.021 452.587 311.621 362.631 311.918C360.95 311.918 359.74 310.238 360.284 308.656ZM304.867 394.486C214.936 394.189 157.791 360.589 133.554 293.61C132.986 292.004 134.221 290.299 135.901 290.299C223.336 291.263 283.002 322.121 307.214 391.224C307.758 392.806 306.547 394.486 304.867 394.486ZM533.943 380.724C509.731 447.727 452.586 481.328 362.63 481.624C360.95 481.624 359.739 479.944 360.283 478.363C384.495 409.26 444.185 378.401 531.596 377.438C533.301 377.414 534.536 379.143 533.943 380.724Z" fill="white"/>
</svg>
